<svg width="19" height="30" viewBox="0 0 19 30" fill="none" xmlns="http://www.w3.org/2000/svg">
<path d="M0.0999756 26.3L0.516642 30L3.21664 27.4333L7.83331 14.7667C6.69998 14.4833 5.69997 13.9167 4.88331 13.1333L0.0999756 26.3ZM14.1166 13.1333C13.3 13.9167 12.2833 14.4833 11.1666 14.7667L15.7833 27.4333L18.4833 30L18.9166 26.3L14.1166 13.1333V13.1333ZM14.4 9.33333C14.9 6.73333 13.4 4.43333 11.1666 3.63333V1.66667C11.1666 0.75 10.4166 0 9.49998 0C8.58331 0 7.83331 0.75 7.83331 1.66667V3.63333C5.89998 4.33333 4.49998 6.16667 4.49998 8.33333C4.49998 11.4 7.26664 13.8333 10.4333 13.25C12.4 12.8833 14.0166 11.3 14.4 9.33333V9.33333ZM9.49998 10C8.58331 10 7.83331 9.25 7.83331 8.33333C7.83331 7.41667 8.58331 6.66667 9.49998 6.66667C10.4166 6.66667 11.1666 7.41667 11.1666 8.33333C11.1666 9.25 10.4166 10 9.49998 10Z" fill="#292E3D"/>
</svg>
