<svg width="32" height="32" viewBox="0 0 32 32" fill="none" xmlns="http://www.w3.org/2000/svg">
<path d="M14.3333 5.99995H19.3333L24.8167 0.499955C24.9716 0.343741 25.1559 0.219751 25.359 0.135136C25.5621 0.0505217 25.78 0.00695801 26 0.00695801C26.22 0.00695801 26.4379 0.0505217 26.641 0.135136C26.8441 0.219751 27.0284 0.343741 27.1833 0.499955L31.4833 4.81662C31.7938 5.12889 31.968 5.55131 31.968 5.99162C31.968 6.43193 31.7938 6.85435 31.4833 7.16662L27.6667 11H14.3333V14.3333C14.3333 14.7753 14.1577 15.1992 13.8452 15.5118C13.5326 15.8244 13.1087 16 12.6667 16C12.2246 16 11.8007 15.8244 11.4882 15.5118C11.1756 15.1992 11 14.7753 11 14.3333V9.33329C11 8.44923 11.3512 7.60139 11.9763 6.97626C12.6014 6.35114 13.4493 5.99995 14.3333 5.99995ZM4.33333 14.3333V21L0.516667 24.8166C0.206249 25.1289 0.0320129 25.5513 0.0320129 25.9916C0.0320129 26.4319 0.206249 26.8544 0.516667 27.1666L4.81667 31.4833C4.97161 31.6395 5.15594 31.7635 5.35904 31.8481C5.56214 31.9327 5.77998 31.9763 6 31.9763C6.22002 31.9763 6.43786 31.9327 6.64096 31.8481C6.84406 31.7635 7.0284 31.6395 7.18333 31.4833L14.3333 24.3333H21C21.442 24.3333 21.866 24.1577 22.1785 23.8451C22.4911 23.5326 22.6667 23.1086 22.6667 22.6666V21H24.3333C24.7754 21 25.1993 20.8244 25.5118 20.5118C25.8244 20.1992 26 19.7753 26 19.3333V17.6666H27.6667C28.1087 17.6666 28.5326 17.491 28.8452 17.1785C29.1577 16.8659 29.3333 16.442 29.3333 16V14.3333H17.6667V16C17.6667 16.884 17.3155 17.7319 16.6904 18.357C16.0652 18.9821 15.2174 19.3333 14.3333 19.3333H11C10.1159 19.3333 9.2681 18.9821 8.64298 18.357C8.01786 17.7319 7.66667 16.884 7.66667 16V11L4.33333 14.3333Z" fill="#292E3D"/>
</svg>
