<svg width="24" height="24" viewBox="0 0 24 24" fill="none" xmlns="http://www.w3.org/2000/svg">
<path d="M18.9908 2H9.00979C7.89879 2 6.99979 2.899 6.99979 4.01V9.647L2.29779 14.289C2.1569 14.4283 2.06059 14.6064 2.02107 14.8006C1.98155 14.9947 2.0006 15.1963 2.07582 15.3796C2.15103 15.5629 2.27901 15.7197 2.44352 15.8302C2.60802 15.9407 2.80164 15.9998 2.99979 16V21C2.99979 21.2652 3.10514 21.5196 3.29268 21.7071C3.48022 21.8946 3.73457 22 3.99979 22H19.9998C20.265 22 20.5194 21.8946 20.7069 21.7071C20.8944 21.5196 20.9998 21.2652 20.9998 21V4.009C20.9998 2.899 20.1018 2 18.9908 2ZM10.9218 15.111V20H4.99979V14.432L7.98679 11.483L10.9218 14.486V15.111ZM12.9998 9H10.9998V7H12.9998V9ZM16.9998 17H14.9998V15H16.9998V17ZM16.9998 13H14.9998V11H16.9998V13ZM16.9998 9H14.9998V7H16.9998V9Z" fill="#14171F"/>
<path d="M7 15H9V17H7V15Z" fill="#14171F"/>
</svg>
