<svg width="35" height="28" viewBox="0 0 35 28" fill="none" xmlns="http://www.w3.org/2000/svg">
<path d="M27.5 20.6667H24.1667V19.0001H10.8334V20.6667H7.50004V19.0001H0.833374V27.3334H34.1667V19.0001H27.5V20.6667ZM30.8334 7.33341H25.8334V4.00008C25.8334 2.16675 24.3334 0.666748 22.5 0.666748H12.5C10.6667 0.666748 9.16671 2.16675 9.16671 4.00008V7.33341H4.16671C2.33337 7.33341 0.833374 8.83341 0.833374 10.6667V17.3334H7.50004V14.0001H10.8334V17.3334H24.1667V14.0001H27.5V17.3334H34.1667V10.6667C34.1667 8.83341 32.6667 7.33341 30.8334 7.33341ZM22.5 7.33341H12.5V4.00008H22.5V7.33341Z" fill="white"/>
</svg>
