<svg width="33" height="34" viewBox="0 0 33 34" fill="none" xmlns="http://www.w3.org/2000/svg">
<path d="M28 2.00004C26.8952 2.00093 25.8359 2.4402 25.0547 3.22141C24.2735 4.00262 23.8342 5.06191 23.8333 6.16671C23.8333 6.76171 23.9633 7.32671 24.19 7.84171L20.9317 11.5067C19.8248 10.7427 18.5116 10.3334 17.1667 10.3334C15.9333 10.3334 14.7933 10.6934 13.8017 11.2767L10.0117 7.48838L9.97334 7.52671C10.3 6.86338 10.5 6.12504 10.5 5.33338C10.5 4.34447 10.2068 3.37777 9.65735 2.55553C9.10794 1.73328 8.32705 1.09242 7.41342 0.713979C6.49979 0.33554 5.49446 0.236524 4.52455 0.42945C3.55465 0.622376 2.66373 1.09858 1.96447 1.79784C1.26521 2.49711 0.789002 3.38802 0.596076 4.35792C0.40315 5.32783 0.502166 6.33316 0.880605 7.24679C1.25904 8.16042 1.89991 8.94132 2.72215 9.49072C3.5444 10.0401 4.5111 10.3334 5.5 10.3334C6.29167 10.3334 7.02834 10.1334 7.69334 9.80671L7.655 9.84504L11.445 13.6334C10.8327 14.6501 10.5063 15.8132 10.5 17C10.5 18.6617 11.1333 20.165 12.1417 21.335L7.84667 25.6284C7.36528 25.4357 6.85185 25.3356 6.33334 25.3334C4.03667 25.3334 2.16667 27.2017 2.16667 29.5C2.16667 31.7984 4.03667 33.6667 6.33334 33.6667C8.63 33.6667 10.5 31.7984 10.5 29.5C10.5 28.965 10.39 28.4567 10.205 27.985L14.935 23.255C15.6367 23.505 16.38 23.6667 17.1667 23.6667C20.8433 23.6667 23.8333 20.6767 23.8333 17C23.8333 15.94 23.5617 14.9517 23.12 14.06L26.6483 10.0884C27.075 10.235 27.525 10.3334 28 10.3334C30.2983 10.3334 32.1667 8.46504 32.1667 6.16671C32.1667 3.86838 30.2983 2.00004 28 2.00004ZM17.1667 20.3334C15.3283 20.3334 13.8333 18.8384 13.8333 17C13.8333 15.1617 15.3283 13.6667 17.1667 13.6667C19.005 13.6667 20.5 15.1617 20.5 17C20.5 18.8384 19.005 20.3334 17.1667 20.3334Z" fill="white"/>
</svg>
